<svg enable-background="new 0 0 512 512" viewBox="0 0 512 512" xmlns="http://www.w3.org/2000/svg"><path d="m217.144 182.764-204.857 241.654c-17.482 20.622-16.145 53.137 2.972 72.254 19.117 19.116 51.712 20.551 72.434 3.185l243.791-204.307z" fill="#463836"/><path d="m217.144 182.764c8.149 25.448 22.316 49.386 42.511 69.581 20.788 20.788 45.544 35.183 71.828 43.206l48.721-40.83-121.249-121.277z" fill="#c2b8b9"/><circle cx="382.254" cy="129.746" fill="#605353" r="129.745"/><g fill="#463836"><circle cx="460.695" cy="104.599" r="8.727"/><circle cx="464.349" cy="136.53" r="8.727"/><path d="m345.597 166.401c-51.632-51.632-91.311-116.493-67.245-140.558 3.408-3.408 8.933-3.408 12.343 0s3.408 8.934 0 12.343c-4.026 4.026-2.92 17.942 8.626 39.957 12.302 23.457 33.121 50.419 58.619 75.917 25.499 25.499 52.46 46.317 75.918 58.621 22.015 11.546 35.931 12.652 39.957 8.626 3.408-3.408 8.933-3.408 12.343 0 3.408 3.408 3.408 8.934 0 12.343-24.066 24.063-88.927-15.615-140.561-67.249z"/></g></svg>